<mxfile host="Electron" agent="Mozilla/5.0 (Windows NT 10.0; Win64; x64) AppleWebKit/537.36 (KHTML, like Gecko) draw.io/28.0.6 Chrome/138.0.7204.100 Electron/37.2.3 Safari/537.36" version="28.0.6">
  <diagram name="Page-1" id="smZ8m82g8b_XwVnC9Xe6">
    <mxGraphModel dx="872" dy="537" grid="1" gridSize="10" guides="1" tooltips="1" connect="1" arrows="1" fold="1" page="1" pageScale="1" pageWidth="850" pageHeight="1100" math="0" shadow="0">
      <root>
        <mxCell id="0" />
        <mxCell id="1" parent="0" />
        <mxCell id="bO2SUxUtqcQRhuP-treT-1" value="&lt;font style=&quot;font-size: 16px;&quot;&gt;&amp;nbsp;Shared Librarues&lt;/font&gt;" style="swimlane;horizontal=0;whiteSpace=wrap;html=1;sketch=1;hachureGap=4;jiggle=2;curveFitting=1;fontFamily=Architects Daughter;fontSource=https%3A%2F%2Ffonts.googleapis.com%2Fcss%3Ffamily%3DArchitects%2BDaughter;startSize=23;fillColor=#ffe6cc;strokeColor=#d79b00;" vertex="1" parent="1">
          <mxGeometry x="190" y="210" width="250" height="360" as="geometry" />
        </mxCell>
        <mxCell id="bO2SUxUtqcQRhuP-treT-2" value="Tnosc.Lib.Api" style="whiteSpace=wrap;html=1;sketch=1;hachureGap=4;jiggle=2;curveFitting=1;fontFamily=Architects Daughter;fontSource=https%3A%2F%2Ffonts.googleapis.com%2Fcss%3Ffamily%3DArchitects%2BDaughter;" vertex="1" parent="bO2SUxUtqcQRhuP-treT-1">
          <mxGeometry x="60" y="290" width="120" height="60" as="geometry" />
        </mxCell>
        <mxCell id="bO2SUxUtqcQRhuP-treT-3" value="Tnosc.Lib.Domain" style="whiteSpace=wrap;html=1;sketch=1;hachureGap=4;jiggle=2;curveFitting=1;fontFamily=Architects Daughter;fontSource=https%3A%2F%2Ffonts.googleapis.com%2Fcss%3Ffamily%3DArchitects%2BDaughter;" vertex="1" parent="bO2SUxUtqcQRhuP-treT-1">
          <mxGeometry x="70" y="20" width="120" height="60" as="geometry" />
        </mxCell>
        <mxCell id="bO2SUxUtqcQRhuP-treT-4" style="edgeStyle=orthogonalEdgeStyle;rounded=0;sketch=1;hachureGap=4;jiggle=2;curveFitting=1;orthogonalLoop=1;jettySize=auto;html=1;fontFamily=Architects Daughter;fontSource=https%3A%2F%2Ffonts.googleapis.com%2Fcss%3Ffamily%3DArchitects%2BDaughter;entryX=1;entryY=0.5;entryDx=0;entryDy=0;" edge="1" parent="1" source="bO2SUxUtqcQRhuP-treT-5" target="bO2SUxUtqcQRhuP-treT-3">
          <mxGeometry relative="1" as="geometry">
            <mxPoint x="386" y="260" as="targetPoint" />
          </mxGeometry>
        </mxCell>
        <mxCell id="bO2SUxUtqcQRhuP-treT-5" value="Tnosc.OtripleS.Server.Domain." style="rounded=1;whiteSpace=wrap;html=1;sketch=1;hachureGap=4;jiggle=2;curveFitting=1;fontFamily=Architects Daughter;fontSource=https%3A%2F%2Ffonts.googleapis.com%2Fcss%3Ffamily%3DArchitects%2BDaughter;fillColor=#1ba1e2;fontColor=#ffffff;strokeColor=#006EAF;" vertex="1" parent="1">
          <mxGeometry x="663" y="230" width="270" height="60" as="geometry" />
        </mxCell>
        <mxCell id="bO2SUxUtqcQRhuP-treT-6" style="edgeStyle=orthogonalEdgeStyle;rounded=0;sketch=1;hachureGap=4;jiggle=2;curveFitting=1;orthogonalLoop=1;jettySize=auto;html=1;entryX=0.5;entryY=1;entryDx=0;entryDy=0;fontFamily=Architects Daughter;fontSource=https%3A%2F%2Ffonts.googleapis.com%2Fcss%3Ffamily%3DArchitects%2BDaughter;" edge="1" parent="1" source="bO2SUxUtqcQRhuP-treT-7" target="bO2SUxUtqcQRhuP-treT-5">
          <mxGeometry relative="1" as="geometry" />
        </mxCell>
        <mxCell id="bO2SUxUtqcQRhuP-treT-7" value="Tnosc.OtripleS.Server.Application" style="rounded=1;whiteSpace=wrap;html=1;sketch=1;hachureGap=4;jiggle=2;curveFitting=1;fontFamily=Architects Daughter;fontSource=https%3A%2F%2Ffonts.googleapis.com%2Fcss%3Ffamily%3DArchitects%2BDaughter;fillColor=#60a917;fontColor=#ffffff;strokeColor=#2D7600;" vertex="1" parent="1">
          <mxGeometry x="663" y="370" width="270" height="60" as="geometry" />
        </mxCell>
        <mxCell id="bO2SUxUtqcQRhuP-treT-8" style="edgeStyle=orthogonalEdgeStyle;rounded=0;sketch=1;hachureGap=4;jiggle=2;curveFitting=1;orthogonalLoop=1;jettySize=auto;html=1;entryX=1;entryY=0.5;entryDx=0;entryDy=0;fontFamily=Architects Daughter;fontSource=https%3A%2F%2Ffonts.googleapis.com%2Fcss%3Ffamily%3DArchitects%2BDaughter;" edge="1" parent="1" source="bO2SUxUtqcQRhuP-treT-10" target="bO2SUxUtqcQRhuP-treT-2">
          <mxGeometry relative="1" as="geometry" />
        </mxCell>
        <mxCell id="bO2SUxUtqcQRhuP-treT-9" style="edgeStyle=orthogonalEdgeStyle;rounded=0;sketch=1;hachureGap=4;jiggle=2;curveFitting=1;orthogonalLoop=1;jettySize=auto;html=1;entryX=0;entryY=0.5;entryDx=0;entryDy=0;fontFamily=Architects Daughter;fontSource=https%3A%2F%2Ffonts.googleapis.com%2Fcss%3Ffamily%3DArchitects%2BDaughter;" edge="1" parent="1" source="bO2SUxUtqcQRhuP-treT-10" target="bO2SUxUtqcQRhuP-treT-12">
          <mxGeometry relative="1" as="geometry" />
        </mxCell>
        <mxCell id="bO2SUxUtqcQRhuP-treT-10" value="Tnosc.OtripleS.Server.Api" style="rounded=1;whiteSpace=wrap;html=1;sketch=1;hachureGap=4;jiggle=2;curveFitting=1;fontFamily=Architects Daughter;fontSource=https%3A%2F%2Ffonts.googleapis.com%2Fcss%3Ffamily%3DArchitects%2BDaughter;fillColor=#6a00ff;fontColor=#ffffff;strokeColor=#3700CC;" vertex="1" parent="1">
          <mxGeometry x="483" y="500" width="270" height="60" as="geometry" />
        </mxCell>
        <mxCell id="bO2SUxUtqcQRhuP-treT-11" style="edgeStyle=orthogonalEdgeStyle;rounded=0;sketch=1;hachureGap=4;jiggle=2;curveFitting=1;orthogonalLoop=1;jettySize=auto;html=1;entryX=1;entryY=0.5;entryDx=0;entryDy=0;fontFamily=Architects Daughter;fontSource=https%3A%2F%2Ffonts.googleapis.com%2Fcss%3Ffamily%3DArchitects%2BDaughter;" edge="1" parent="1" source="bO2SUxUtqcQRhuP-treT-12" target="bO2SUxUtqcQRhuP-treT-7">
          <mxGeometry relative="1" as="geometry" />
        </mxCell>
        <mxCell id="bO2SUxUtqcQRhuP-treT-12" value="Tnosc.OtripleS.Server.Infrastructure" style="rounded=1;whiteSpace=wrap;html=1;sketch=1;hachureGap=4;jiggle=2;curveFitting=1;fontFamily=Architects Daughter;fontSource=https%3A%2F%2Ffonts.googleapis.com%2Fcss%3Ffamily%3DArchitects%2BDaughter;fillColor=#a20025;fontColor=#ffffff;strokeColor=#6F0000;" vertex="1" parent="1">
          <mxGeometry x="853" y="500" width="270" height="60" as="geometry" />
        </mxCell>
        <mxCell id="bO2SUxUtqcQRhuP-treT-13" value="&lt;font style=&quot;font-size: 16px;&quot;&gt;Tests&lt;/font&gt;" style="swimlane;horizontal=0;whiteSpace=wrap;html=1;sketch=1;hachureGap=4;jiggle=2;curveFitting=1;fontFamily=Architects Daughter;fontSource=https%3A%2F%2Ffonts.googleapis.com%2Fcss%3Ffamily%3DArchitects%2BDaughter;startSize=23;rotation=90;fillColor=#dae8fc;strokeColor=#6c8ebf;" vertex="1" parent="1">
          <mxGeometry x="642.8" y="461.96" width="340" height="629.38" as="geometry" />
        </mxCell>
        <mxCell id="bO2SUxUtqcQRhuP-treT-14" value="Tnosc.OtripleS.Server.Tests.Architecture" style="whiteSpace=wrap;html=1;sketch=1;hachureGap=4;jiggle=2;curveFitting=1;fontFamily=Architects Daughter;fontSource=https%3A%2F%2Ffonts.googleapis.com%2Fcss%3Ffamily%3DArchitects%2BDaughter;rotation=0;" vertex="1" parent="bO2SUxUtqcQRhuP-treT-13">
          <mxGeometry x="193.77" y="205.10999999999999" width="254" height="60" as="geometry" />
        </mxCell>
        <mxCell id="bO2SUxUtqcQRhuP-treT-15" style="edgeStyle=orthogonalEdgeStyle;rounded=0;sketch=1;hachureGap=4;jiggle=2;curveFitting=1;orthogonalLoop=1;jettySize=auto;html=1;fontFamily=Architects Daughter;fontSource=https%3A%2F%2Ffonts.googleapis.com%2Fcss%3Ffamily%3DArchitects%2BDaughter;" edge="1" parent="bO2SUxUtqcQRhuP-treT-13" source="bO2SUxUtqcQRhuP-treT-16">
          <mxGeometry relative="1" as="geometry">
            <mxPoint x="-26.799999999999955" y="98.04000000000002" as="targetPoint" />
          </mxGeometry>
        </mxCell>
        <mxCell id="bO2SUxUtqcQRhuP-treT-16" value="Tnosc.OtripleS.Server.Tests.Unit" style="whiteSpace=wrap;html=1;sketch=1;hachureGap=4;jiggle=2;curveFitting=1;fontFamily=Architects Daughter;fontSource=https%3A%2F%2Ffonts.googleapis.com%2Fcss%3Ffamily%3DArchitects%2BDaughter;rotation=0;" vertex="1" parent="bO2SUxUtqcQRhuP-treT-13">
          <mxGeometry x="193.77" y="301.46" width="254" height="60" as="geometry" />
        </mxCell>
        <mxCell id="bO2SUxUtqcQRhuP-treT-17" style="edgeStyle=orthogonalEdgeStyle;rounded=0;sketch=1;hachureGap=4;jiggle=2;curveFitting=1;orthogonalLoop=1;jettySize=auto;html=1;fontFamily=Architects Daughter;fontSource=https%3A%2F%2Ffonts.googleapis.com%2Fcss%3Ffamily%3DArchitects%2BDaughter;" edge="1" parent="bO2SUxUtqcQRhuP-treT-13" source="bO2SUxUtqcQRhuP-treT-18">
          <mxGeometry relative="1" as="geometry">
            <mxPoint x="-26.799999999999955" y="98.04000000000002" as="targetPoint" />
          </mxGeometry>
        </mxCell>
        <mxCell id="bO2SUxUtqcQRhuP-treT-18" value="Tnosc.OtripleS.Server.Tests.Acceptance" style="whiteSpace=wrap;html=1;sketch=1;hachureGap=4;jiggle=2;curveFitting=1;fontFamily=Architects Daughter;fontSource=https%3A%2F%2Ffonts.googleapis.com%2Fcss%3Ffamily%3DArchitects%2BDaughter;rotation=0;" vertex="1" parent="bO2SUxUtqcQRhuP-treT-13">
          <mxGeometry x="193.77" y="395.11" width="254" height="60" as="geometry" />
        </mxCell>
        <mxCell id="bO2SUxUtqcQRhuP-treT-19" style="edgeStyle=orthogonalEdgeStyle;rounded=0;sketch=1;hachureGap=4;jiggle=2;curveFitting=1;orthogonalLoop=1;jettySize=auto;html=1;fontFamily=Architects Daughter;fontSource=https%3A%2F%2Ffonts.googleapis.com%2Fcss%3Ffamily%3DArchitects%2BDaughter;" edge="1" parent="1" source="bO2SUxUtqcQRhuP-treT-14" target="bO2SUxUtqcQRhuP-treT-10">
          <mxGeometry relative="1" as="geometry" />
        </mxCell>
        <mxCell id="bO2SUxUtqcQRhuP-treT-20" value="&lt;font style=&quot;font-size: 16px;&quot;&gt;CI/CD&lt;/font&gt;" style="swimlane;horizontal=0;whiteSpace=wrap;html=1;sketch=1;hachureGap=4;jiggle=2;curveFitting=1;fontFamily=Architects Daughter;fontSource=https%3A%2F%2Ffonts.googleapis.com%2Fcss%3Ffamily%3DArchitects%2BDaughter;startSize=23;fillColor=#e1d5e7;strokeColor=#9673a6;" vertex="1" parent="1">
          <mxGeometry x="1156" y="210" width="250" height="360" as="geometry" />
        </mxCell>
        <mxCell id="bO2SUxUtqcQRhuP-treT-21" value="Tnosc.OtripleS.Server.Build" style="whiteSpace=wrap;html=1;sketch=1;hachureGap=4;jiggle=2;curveFitting=1;fontFamily=Architects Daughter;fontSource=https%3A%2F%2Ffonts.googleapis.com%2Fcss%3Ffamily%3DArchitects%2BDaughter;" vertex="1" parent="bO2SUxUtqcQRhuP-treT-20">
          <mxGeometry x="50" y="90" width="175" height="60" as="geometry" />
        </mxCell>
        <mxCell id="bO2SUxUtqcQRhuP-treT-22" value="Tnosc.OtripleS.Server.Provision" style="whiteSpace=wrap;html=1;sketch=1;hachureGap=4;jiggle=2;curveFitting=1;fontFamily=Architects Daughter;fontSource=https%3A%2F%2Ffonts.googleapis.com%2Fcss%3Ffamily%3DArchitects%2BDaughter;" vertex="1" parent="bO2SUxUtqcQRhuP-treT-20">
          <mxGeometry x="47.5" y="200" width="180" height="60" as="geometry" />
        </mxCell>
      </root>
    </mxGraphModel>
  </diagram>
</mxfile>
